G04 #@! TF.GenerationSoftware,KiCad,Pcbnew,9.0.6-9.0.6~ubuntu22.04.1*
G04 #@! TF.CreationDate,2025-11-27T17:33:19+09:00*
G04 #@! TF.ProjectId,LineSensor,4c696e65-5365-46e7-936f-722e6b696361,rev?*
G04 #@! TF.SameCoordinates,Original*
G04 #@! TF.FileFunction,Legend,Bot*
G04 #@! TF.FilePolarity,Positive*
%FSLAX46Y46*%
G04 Gerber Fmt 4.6, Leading zero omitted, Abs format (unit mm)*
G04 Created by KiCad (PCBNEW 9.0.6-9.0.6~ubuntu22.04.1) date 2025-11-27 17:33:19*
%MOMM*%
%LPD*%
G01*
G04 APERTURE LIST*
G04 Aperture macros list*
%AMRoundRect*
0 Rectangle with rounded corners*
0 $1 Rounding radius*
0 $2 $3 $4 $5 $6 $7 $8 $9 X,Y pos of 4 corners*
0 Add a 4 corners polygon primitive as box body*
4,1,4,$2,$3,$4,$5,$6,$7,$8,$9,$2,$3,0*
0 Add four circle primitives for the rounded corners*
1,1,$1+$1,$2,$3*
1,1,$1+$1,$4,$5*
1,1,$1+$1,$6,$7*
1,1,$1+$1,$8,$9*
0 Add four rect primitives between the rounded corners*
20,1,$1+$1,$2,$3,$4,$5,0*
20,1,$1+$1,$4,$5,$6,$7,0*
20,1,$1+$1,$6,$7,$8,$9,0*
20,1,$1+$1,$8,$9,$2,$3,0*%
G04 Aperture macros list end*
%ADD10C,0.150000*%
%ADD11C,0.100000*%
%ADD12C,0.120000*%
%ADD13C,3.200000*%
%ADD14R,1.700000X1.700000*%
%ADD15C,1.700000*%
%ADD16C,1.600000*%
%ADD17RoundRect,0.250000X-0.550000X0.550000X-0.550000X-0.550000X0.550000X-0.550000X0.550000X0.550000X0*%
%ADD18RoundRect,0.250000X-0.600000X-0.750000X0.600000X-0.750000X0.600000X0.750000X-0.600000X0.750000X0*%
%ADD19O,1.700000X2.000000*%
%ADD20RoundRect,0.250000X0.600000X0.725000X-0.600000X0.725000X-0.600000X-0.725000X0.600000X-0.725000X0*%
%ADD21O,1.700000X1.950000*%
%ADD22R,1.600000X1.600000*%
%ADD23O,1.600000X1.600000*%
%ADD24C,1.400000*%
%ADD25C,2.000000*%
%ADD26R,1.717500X1.800000*%
%ADD27O,1.717500X1.800000*%
%ADD28R,5.700000X6.200000*%
G04 APERTURE END LIST*
D10*
X164867332Y-92952200D02*
X164724475Y-92999819D01*
X164724475Y-92999819D02*
X164486380Y-92999819D01*
X164486380Y-92999819D02*
X164391142Y-92952200D01*
X164391142Y-92952200D02*
X164343523Y-92904580D01*
X164343523Y-92904580D02*
X164295904Y-92809342D01*
X164295904Y-92809342D02*
X164295904Y-92714104D01*
X164295904Y-92714104D02*
X164343523Y-92618866D01*
X164343523Y-92618866D02*
X164391142Y-92571247D01*
X164391142Y-92571247D02*
X164486380Y-92523628D01*
X164486380Y-92523628D02*
X164676856Y-92476009D01*
X164676856Y-92476009D02*
X164772094Y-92428390D01*
X164772094Y-92428390D02*
X164819713Y-92380771D01*
X164819713Y-92380771D02*
X164867332Y-92285533D01*
X164867332Y-92285533D02*
X164867332Y-92190295D01*
X164867332Y-92190295D02*
X164819713Y-92095057D01*
X164819713Y-92095057D02*
X164772094Y-92047438D01*
X164772094Y-92047438D02*
X164676856Y-91999819D01*
X164676856Y-91999819D02*
X164438761Y-91999819D01*
X164438761Y-91999819D02*
X164295904Y-92047438D01*
X163962570Y-91999819D02*
X163724475Y-92999819D01*
X163724475Y-92999819D02*
X163533999Y-92285533D01*
X163533999Y-92285533D02*
X163343523Y-92999819D01*
X163343523Y-92999819D02*
X163105428Y-91999819D01*
X162772094Y-92095057D02*
X162724475Y-92047438D01*
X162724475Y-92047438D02*
X162629237Y-91999819D01*
X162629237Y-91999819D02*
X162391142Y-91999819D01*
X162391142Y-91999819D02*
X162295904Y-92047438D01*
X162295904Y-92047438D02*
X162248285Y-92095057D01*
X162248285Y-92095057D02*
X162200666Y-92190295D01*
X162200666Y-92190295D02*
X162200666Y-92285533D01*
X162200666Y-92285533D02*
X162248285Y-92428390D01*
X162248285Y-92428390D02*
X162819713Y-92999819D01*
X162819713Y-92999819D02*
X162200666Y-92999819D01*
X164985857Y-108756819D02*
X165319190Y-108280628D01*
X165557285Y-108756819D02*
X165557285Y-107756819D01*
X165557285Y-107756819D02*
X165176333Y-107756819D01*
X165176333Y-107756819D02*
X165081095Y-107804438D01*
X165081095Y-107804438D02*
X165033476Y-107852057D01*
X165033476Y-107852057D02*
X164985857Y-107947295D01*
X164985857Y-107947295D02*
X164985857Y-108090152D01*
X164985857Y-108090152D02*
X165033476Y-108185390D01*
X165033476Y-108185390D02*
X165081095Y-108233009D01*
X165081095Y-108233009D02*
X165176333Y-108280628D01*
X165176333Y-108280628D02*
X165557285Y-108280628D01*
X164414428Y-108185390D02*
X164509666Y-108137771D01*
X164509666Y-108137771D02*
X164557285Y-108090152D01*
X164557285Y-108090152D02*
X164604904Y-107994914D01*
X164604904Y-107994914D02*
X164604904Y-107947295D01*
X164604904Y-107947295D02*
X164557285Y-107852057D01*
X164557285Y-107852057D02*
X164509666Y-107804438D01*
X164509666Y-107804438D02*
X164414428Y-107756819D01*
X164414428Y-107756819D02*
X164223952Y-107756819D01*
X164223952Y-107756819D02*
X164128714Y-107804438D01*
X164128714Y-107804438D02*
X164081095Y-107852057D01*
X164081095Y-107852057D02*
X164033476Y-107947295D01*
X164033476Y-107947295D02*
X164033476Y-107994914D01*
X164033476Y-107994914D02*
X164081095Y-108090152D01*
X164081095Y-108090152D02*
X164128714Y-108137771D01*
X164128714Y-108137771D02*
X164223952Y-108185390D01*
X164223952Y-108185390D02*
X164414428Y-108185390D01*
X164414428Y-108185390D02*
X164509666Y-108233009D01*
X164509666Y-108233009D02*
X164557285Y-108280628D01*
X164557285Y-108280628D02*
X164604904Y-108375866D01*
X164604904Y-108375866D02*
X164604904Y-108566342D01*
X164604904Y-108566342D02*
X164557285Y-108661580D01*
X164557285Y-108661580D02*
X164509666Y-108709200D01*
X164509666Y-108709200D02*
X164414428Y-108756819D01*
X164414428Y-108756819D02*
X164223952Y-108756819D01*
X164223952Y-108756819D02*
X164128714Y-108709200D01*
X164128714Y-108709200D02*
X164081095Y-108661580D01*
X164081095Y-108661580D02*
X164033476Y-108566342D01*
X164033476Y-108566342D02*
X164033476Y-108375866D01*
X164033476Y-108375866D02*
X164081095Y-108280628D01*
X164081095Y-108280628D02*
X164128714Y-108233009D01*
X164128714Y-108233009D02*
X164223952Y-108185390D01*
X163176333Y-108090152D02*
X163176333Y-108756819D01*
X163414428Y-107709200D02*
X163652523Y-108423485D01*
X163652523Y-108423485D02*
X163033476Y-108423485D01*
X154939580Y-80824445D02*
X154987200Y-80776826D01*
X154987200Y-80776826D02*
X155034819Y-80633969D01*
X155034819Y-80633969D02*
X155034819Y-80538731D01*
X155034819Y-80538731D02*
X154987200Y-80395874D01*
X154987200Y-80395874D02*
X154891961Y-80300636D01*
X154891961Y-80300636D02*
X154796723Y-80253017D01*
X154796723Y-80253017D02*
X154606247Y-80205398D01*
X154606247Y-80205398D02*
X154463390Y-80205398D01*
X154463390Y-80205398D02*
X154272914Y-80253017D01*
X154272914Y-80253017D02*
X154177676Y-80300636D01*
X154177676Y-80300636D02*
X154082438Y-80395874D01*
X154082438Y-80395874D02*
X154034819Y-80538731D01*
X154034819Y-80538731D02*
X154034819Y-80633969D01*
X154034819Y-80633969D02*
X154082438Y-80776826D01*
X154082438Y-80776826D02*
X154130057Y-80824445D01*
X154130057Y-81205398D02*
X154082438Y-81253017D01*
X154082438Y-81253017D02*
X154034819Y-81348255D01*
X154034819Y-81348255D02*
X154034819Y-81586350D01*
X154034819Y-81586350D02*
X154082438Y-81681588D01*
X154082438Y-81681588D02*
X154130057Y-81729207D01*
X154130057Y-81729207D02*
X154225295Y-81776826D01*
X154225295Y-81776826D02*
X154320533Y-81776826D01*
X154320533Y-81776826D02*
X154463390Y-81729207D01*
X154463390Y-81729207D02*
X155034819Y-81157779D01*
X155034819Y-81157779D02*
X155034819Y-81776826D01*
X170483333Y-108404819D02*
X170483333Y-109119104D01*
X170483333Y-109119104D02*
X170530952Y-109261961D01*
X170530952Y-109261961D02*
X170626190Y-109357200D01*
X170626190Y-109357200D02*
X170769047Y-109404819D01*
X170769047Y-109404819D02*
X170864285Y-109404819D01*
X170054761Y-108500057D02*
X170007142Y-108452438D01*
X170007142Y-108452438D02*
X169911904Y-108404819D01*
X169911904Y-108404819D02*
X169673809Y-108404819D01*
X169673809Y-108404819D02*
X169578571Y-108452438D01*
X169578571Y-108452438D02*
X169530952Y-108500057D01*
X169530952Y-108500057D02*
X169483333Y-108595295D01*
X169483333Y-108595295D02*
X169483333Y-108690533D01*
X169483333Y-108690533D02*
X169530952Y-108833390D01*
X169530952Y-108833390D02*
X170102380Y-109404819D01*
X170102380Y-109404819D02*
X169483333Y-109404819D01*
X185402333Y-100687819D02*
X185402333Y-101402104D01*
X185402333Y-101402104D02*
X185449952Y-101544961D01*
X185449952Y-101544961D02*
X185545190Y-101640200D01*
X185545190Y-101640200D02*
X185688047Y-101687819D01*
X185688047Y-101687819D02*
X185783285Y-101687819D01*
X184402333Y-101687819D02*
X184973761Y-101687819D01*
X184688047Y-101687819D02*
X184688047Y-100687819D01*
X184688047Y-100687819D02*
X184783285Y-100830676D01*
X184783285Y-100830676D02*
X184878523Y-100925914D01*
X184878523Y-100925914D02*
X184973761Y-100973533D01*
X150704285Y-76198104D02*
X150228095Y-76198104D01*
X150799523Y-76483819D02*
X150466190Y-75483819D01*
X150466190Y-75483819D02*
X150132857Y-76483819D01*
X149275714Y-76483819D02*
X149847142Y-76483819D01*
X149561428Y-76483819D02*
X149561428Y-75483819D01*
X149561428Y-75483819D02*
X149656666Y-75626676D01*
X149656666Y-75626676D02*
X149751904Y-75721914D01*
X149751904Y-75721914D02*
X149847142Y-75769533D01*
X151251904Y-116123819D02*
X151251904Y-116933342D01*
X151251904Y-116933342D02*
X151204285Y-117028580D01*
X151204285Y-117028580D02*
X151156666Y-117076200D01*
X151156666Y-117076200D02*
X151061428Y-117123819D01*
X151061428Y-117123819D02*
X150870952Y-117123819D01*
X150870952Y-117123819D02*
X150775714Y-117076200D01*
X150775714Y-117076200D02*
X150728095Y-117028580D01*
X150728095Y-117028580D02*
X150680476Y-116933342D01*
X150680476Y-116933342D02*
X150680476Y-116123819D01*
X150251904Y-117076200D02*
X150109047Y-117123819D01*
X150109047Y-117123819D02*
X149870952Y-117123819D01*
X149870952Y-117123819D02*
X149775714Y-117076200D01*
X149775714Y-117076200D02*
X149728095Y-117028580D01*
X149728095Y-117028580D02*
X149680476Y-116933342D01*
X149680476Y-116933342D02*
X149680476Y-116838104D01*
X149680476Y-116838104D02*
X149728095Y-116742866D01*
X149728095Y-116742866D02*
X149775714Y-116695247D01*
X149775714Y-116695247D02*
X149870952Y-116647628D01*
X149870952Y-116647628D02*
X150061428Y-116600009D01*
X150061428Y-116600009D02*
X150156666Y-116552390D01*
X150156666Y-116552390D02*
X150204285Y-116504771D01*
X150204285Y-116504771D02*
X150251904Y-116409533D01*
X150251904Y-116409533D02*
X150251904Y-116314295D01*
X150251904Y-116314295D02*
X150204285Y-116219057D01*
X150204285Y-116219057D02*
X150156666Y-116171438D01*
X150156666Y-116171438D02*
X150061428Y-116123819D01*
X150061428Y-116123819D02*
X149823333Y-116123819D01*
X149823333Y-116123819D02*
X149680476Y-116171438D01*
X148918571Y-116600009D02*
X148775714Y-116647628D01*
X148775714Y-116647628D02*
X148728095Y-116695247D01*
X148728095Y-116695247D02*
X148680476Y-116790485D01*
X148680476Y-116790485D02*
X148680476Y-116933342D01*
X148680476Y-116933342D02*
X148728095Y-117028580D01*
X148728095Y-117028580D02*
X148775714Y-117076200D01*
X148775714Y-117076200D02*
X148870952Y-117123819D01*
X148870952Y-117123819D02*
X149251904Y-117123819D01*
X149251904Y-117123819D02*
X149251904Y-116123819D01*
X149251904Y-116123819D02*
X148918571Y-116123819D01*
X148918571Y-116123819D02*
X148823333Y-116171438D01*
X148823333Y-116171438D02*
X148775714Y-116219057D01*
X148775714Y-116219057D02*
X148728095Y-116314295D01*
X148728095Y-116314295D02*
X148728095Y-116409533D01*
X148728095Y-116409533D02*
X148775714Y-116504771D01*
X148775714Y-116504771D02*
X148823333Y-116552390D01*
X148823333Y-116552390D02*
X148918571Y-116600009D01*
X148918571Y-116600009D02*
X149251904Y-116600009D01*
X184004819Y-105557142D02*
X183528628Y-105223809D01*
X184004819Y-104985714D02*
X183004819Y-104985714D01*
X183004819Y-104985714D02*
X183004819Y-105366666D01*
X183004819Y-105366666D02*
X183052438Y-105461904D01*
X183052438Y-105461904D02*
X183100057Y-105509523D01*
X183100057Y-105509523D02*
X183195295Y-105557142D01*
X183195295Y-105557142D02*
X183338152Y-105557142D01*
X183338152Y-105557142D02*
X183433390Y-105509523D01*
X183433390Y-105509523D02*
X183481009Y-105461904D01*
X183481009Y-105461904D02*
X183528628Y-105366666D01*
X183528628Y-105366666D02*
X183528628Y-104985714D01*
X183004819Y-106461904D02*
X183004819Y-105985714D01*
X183004819Y-105985714D02*
X183481009Y-105938095D01*
X183481009Y-105938095D02*
X183433390Y-105985714D01*
X183433390Y-105985714D02*
X183385771Y-106080952D01*
X183385771Y-106080952D02*
X183385771Y-106319047D01*
X183385771Y-106319047D02*
X183433390Y-106414285D01*
X183433390Y-106414285D02*
X183481009Y-106461904D01*
X183481009Y-106461904D02*
X183576247Y-106509523D01*
X183576247Y-106509523D02*
X183814342Y-106509523D01*
X183814342Y-106509523D02*
X183909580Y-106461904D01*
X183909580Y-106461904D02*
X183957200Y-106414285D01*
X183957200Y-106414285D02*
X184004819Y-106319047D01*
X184004819Y-106319047D02*
X184004819Y-106080952D01*
X184004819Y-106080952D02*
X183957200Y-105985714D01*
X183957200Y-105985714D02*
X183909580Y-105938095D01*
X184004819Y-107461904D02*
X184004819Y-106890476D01*
X184004819Y-107176190D02*
X183004819Y-107176190D01*
X183004819Y-107176190D02*
X183147676Y-107080952D01*
X183147676Y-107080952D02*
X183242914Y-106985714D01*
X183242914Y-106985714D02*
X183290533Y-106890476D01*
D11*
X148657419Y-68904761D02*
X148181228Y-68571428D01*
X148657419Y-68333333D02*
X147657419Y-68333333D01*
X147657419Y-68333333D02*
X147657419Y-68714285D01*
X147657419Y-68714285D02*
X147705038Y-68809523D01*
X147705038Y-68809523D02*
X147752657Y-68857142D01*
X147752657Y-68857142D02*
X147847895Y-68904761D01*
X147847895Y-68904761D02*
X147990752Y-68904761D01*
X147990752Y-68904761D02*
X148085990Y-68857142D01*
X148085990Y-68857142D02*
X148133609Y-68809523D01*
X148133609Y-68809523D02*
X148181228Y-68714285D01*
X148181228Y-68714285D02*
X148181228Y-68333333D01*
X147657419Y-69190476D02*
X148657419Y-69523809D01*
X148657419Y-69523809D02*
X147657419Y-69857142D01*
X148657419Y-70714285D02*
X148657419Y-70142857D01*
X148657419Y-70428571D02*
X147657419Y-70428571D01*
X147657419Y-70428571D02*
X147800276Y-70333333D01*
X147800276Y-70333333D02*
X147895514Y-70238095D01*
X147895514Y-70238095D02*
X147943133Y-70142857D01*
D10*
X148704580Y-85179333D02*
X148752200Y-85131714D01*
X148752200Y-85131714D02*
X148799819Y-84988857D01*
X148799819Y-84988857D02*
X148799819Y-84893619D01*
X148799819Y-84893619D02*
X148752200Y-84750762D01*
X148752200Y-84750762D02*
X148656961Y-84655524D01*
X148656961Y-84655524D02*
X148561723Y-84607905D01*
X148561723Y-84607905D02*
X148371247Y-84560286D01*
X148371247Y-84560286D02*
X148228390Y-84560286D01*
X148228390Y-84560286D02*
X148037914Y-84607905D01*
X148037914Y-84607905D02*
X147942676Y-84655524D01*
X147942676Y-84655524D02*
X147847438Y-84750762D01*
X147847438Y-84750762D02*
X147799819Y-84893619D01*
X147799819Y-84893619D02*
X147799819Y-84988857D01*
X147799819Y-84988857D02*
X147847438Y-85131714D01*
X147847438Y-85131714D02*
X147895057Y-85179333D01*
X147799819Y-85512667D02*
X147799819Y-86131714D01*
X147799819Y-86131714D02*
X148180771Y-85798381D01*
X148180771Y-85798381D02*
X148180771Y-85941238D01*
X148180771Y-85941238D02*
X148228390Y-86036476D01*
X148228390Y-86036476D02*
X148276009Y-86084095D01*
X148276009Y-86084095D02*
X148371247Y-86131714D01*
X148371247Y-86131714D02*
X148609342Y-86131714D01*
X148609342Y-86131714D02*
X148704580Y-86084095D01*
X148704580Y-86084095D02*
X148752200Y-86036476D01*
X148752200Y-86036476D02*
X148799819Y-85941238D01*
X148799819Y-85941238D02*
X148799819Y-85655524D01*
X148799819Y-85655524D02*
X148752200Y-85560286D01*
X148752200Y-85560286D02*
X148704580Y-85512667D01*
X175154819Y-108957142D02*
X174678628Y-108623809D01*
X175154819Y-108385714D02*
X174154819Y-108385714D01*
X174154819Y-108385714D02*
X174154819Y-108766666D01*
X174154819Y-108766666D02*
X174202438Y-108861904D01*
X174202438Y-108861904D02*
X174250057Y-108909523D01*
X174250057Y-108909523D02*
X174345295Y-108957142D01*
X174345295Y-108957142D02*
X174488152Y-108957142D01*
X174488152Y-108957142D02*
X174583390Y-108909523D01*
X174583390Y-108909523D02*
X174631009Y-108861904D01*
X174631009Y-108861904D02*
X174678628Y-108766666D01*
X174678628Y-108766666D02*
X174678628Y-108385714D01*
X174154819Y-109861904D02*
X174154819Y-109385714D01*
X174154819Y-109385714D02*
X174631009Y-109338095D01*
X174631009Y-109338095D02*
X174583390Y-109385714D01*
X174583390Y-109385714D02*
X174535771Y-109480952D01*
X174535771Y-109480952D02*
X174535771Y-109719047D01*
X174535771Y-109719047D02*
X174583390Y-109814285D01*
X174583390Y-109814285D02*
X174631009Y-109861904D01*
X174631009Y-109861904D02*
X174726247Y-109909523D01*
X174726247Y-109909523D02*
X174964342Y-109909523D01*
X174964342Y-109909523D02*
X175059580Y-109861904D01*
X175059580Y-109861904D02*
X175107200Y-109814285D01*
X175107200Y-109814285D02*
X175154819Y-109719047D01*
X175154819Y-109719047D02*
X175154819Y-109480952D01*
X175154819Y-109480952D02*
X175107200Y-109385714D01*
X175107200Y-109385714D02*
X175059580Y-109338095D01*
X174154819Y-110528571D02*
X174154819Y-110623809D01*
X174154819Y-110623809D02*
X174202438Y-110719047D01*
X174202438Y-110719047D02*
X174250057Y-110766666D01*
X174250057Y-110766666D02*
X174345295Y-110814285D01*
X174345295Y-110814285D02*
X174535771Y-110861904D01*
X174535771Y-110861904D02*
X174773866Y-110861904D01*
X174773866Y-110861904D02*
X174964342Y-110814285D01*
X174964342Y-110814285D02*
X175059580Y-110766666D01*
X175059580Y-110766666D02*
X175107200Y-110719047D01*
X175107200Y-110719047D02*
X175154819Y-110623809D01*
X175154819Y-110623809D02*
X175154819Y-110528571D01*
X175154819Y-110528571D02*
X175107200Y-110433333D01*
X175107200Y-110433333D02*
X175059580Y-110385714D01*
X175059580Y-110385714D02*
X174964342Y-110338095D01*
X174964342Y-110338095D02*
X174773866Y-110290476D01*
X174773866Y-110290476D02*
X174535771Y-110290476D01*
X174535771Y-110290476D02*
X174345295Y-110338095D01*
X174345295Y-110338095D02*
X174250057Y-110385714D01*
X174250057Y-110385714D02*
X174202438Y-110433333D01*
X174202438Y-110433333D02*
X174154819Y-110528571D01*
X165842857Y-83668819D02*
X166176190Y-83192628D01*
X166414285Y-83668819D02*
X166414285Y-82668819D01*
X166414285Y-82668819D02*
X166033333Y-82668819D01*
X166033333Y-82668819D02*
X165938095Y-82716438D01*
X165938095Y-82716438D02*
X165890476Y-82764057D01*
X165890476Y-82764057D02*
X165842857Y-82859295D01*
X165842857Y-82859295D02*
X165842857Y-83002152D01*
X165842857Y-83002152D02*
X165890476Y-83097390D01*
X165890476Y-83097390D02*
X165938095Y-83145009D01*
X165938095Y-83145009D02*
X166033333Y-83192628D01*
X166033333Y-83192628D02*
X166414285Y-83192628D01*
X164985714Y-83002152D02*
X164985714Y-83668819D01*
X165223809Y-82621200D02*
X165461904Y-83335485D01*
X165461904Y-83335485D02*
X164842857Y-83335485D01*
X164414285Y-83668819D02*
X164223809Y-83668819D01*
X164223809Y-83668819D02*
X164128571Y-83621200D01*
X164128571Y-83621200D02*
X164080952Y-83573580D01*
X164080952Y-83573580D02*
X163985714Y-83430723D01*
X163985714Y-83430723D02*
X163938095Y-83240247D01*
X163938095Y-83240247D02*
X163938095Y-82859295D01*
X163938095Y-82859295D02*
X163985714Y-82764057D01*
X163985714Y-82764057D02*
X164033333Y-82716438D01*
X164033333Y-82716438D02*
X164128571Y-82668819D01*
X164128571Y-82668819D02*
X164319047Y-82668819D01*
X164319047Y-82668819D02*
X164414285Y-82716438D01*
X164414285Y-82716438D02*
X164461904Y-82764057D01*
X164461904Y-82764057D02*
X164509523Y-82859295D01*
X164509523Y-82859295D02*
X164509523Y-83097390D01*
X164509523Y-83097390D02*
X164461904Y-83192628D01*
X164461904Y-83192628D02*
X164414285Y-83240247D01*
X164414285Y-83240247D02*
X164319047Y-83287866D01*
X164319047Y-83287866D02*
X164128571Y-83287866D01*
X164128571Y-83287866D02*
X164033333Y-83240247D01*
X164033333Y-83240247D02*
X163985714Y-83192628D01*
X163985714Y-83192628D02*
X163938095Y-83097390D01*
X168192857Y-113054819D02*
X168526190Y-112578628D01*
X168764285Y-113054819D02*
X168764285Y-112054819D01*
X168764285Y-112054819D02*
X168383333Y-112054819D01*
X168383333Y-112054819D02*
X168288095Y-112102438D01*
X168288095Y-112102438D02*
X168240476Y-112150057D01*
X168240476Y-112150057D02*
X168192857Y-112245295D01*
X168192857Y-112245295D02*
X168192857Y-112388152D01*
X168192857Y-112388152D02*
X168240476Y-112483390D01*
X168240476Y-112483390D02*
X168288095Y-112531009D01*
X168288095Y-112531009D02*
X168383333Y-112578628D01*
X168383333Y-112578628D02*
X168764285Y-112578628D01*
X167621428Y-112483390D02*
X167716666Y-112435771D01*
X167716666Y-112435771D02*
X167764285Y-112388152D01*
X167764285Y-112388152D02*
X167811904Y-112292914D01*
X167811904Y-112292914D02*
X167811904Y-112245295D01*
X167811904Y-112245295D02*
X167764285Y-112150057D01*
X167764285Y-112150057D02*
X167716666Y-112102438D01*
X167716666Y-112102438D02*
X167621428Y-112054819D01*
X167621428Y-112054819D02*
X167430952Y-112054819D01*
X167430952Y-112054819D02*
X167335714Y-112102438D01*
X167335714Y-112102438D02*
X167288095Y-112150057D01*
X167288095Y-112150057D02*
X167240476Y-112245295D01*
X167240476Y-112245295D02*
X167240476Y-112292914D01*
X167240476Y-112292914D02*
X167288095Y-112388152D01*
X167288095Y-112388152D02*
X167335714Y-112435771D01*
X167335714Y-112435771D02*
X167430952Y-112483390D01*
X167430952Y-112483390D02*
X167621428Y-112483390D01*
X167621428Y-112483390D02*
X167716666Y-112531009D01*
X167716666Y-112531009D02*
X167764285Y-112578628D01*
X167764285Y-112578628D02*
X167811904Y-112673866D01*
X167811904Y-112673866D02*
X167811904Y-112864342D01*
X167811904Y-112864342D02*
X167764285Y-112959580D01*
X167764285Y-112959580D02*
X167716666Y-113007200D01*
X167716666Y-113007200D02*
X167621428Y-113054819D01*
X167621428Y-113054819D02*
X167430952Y-113054819D01*
X167430952Y-113054819D02*
X167335714Y-113007200D01*
X167335714Y-113007200D02*
X167288095Y-112959580D01*
X167288095Y-112959580D02*
X167240476Y-112864342D01*
X167240476Y-112864342D02*
X167240476Y-112673866D01*
X167240476Y-112673866D02*
X167288095Y-112578628D01*
X167288095Y-112578628D02*
X167335714Y-112531009D01*
X167335714Y-112531009D02*
X167430952Y-112483390D01*
X166335714Y-112054819D02*
X166811904Y-112054819D01*
X166811904Y-112054819D02*
X166859523Y-112531009D01*
X166859523Y-112531009D02*
X166811904Y-112483390D01*
X166811904Y-112483390D02*
X166716666Y-112435771D01*
X166716666Y-112435771D02*
X166478571Y-112435771D01*
X166478571Y-112435771D02*
X166383333Y-112483390D01*
X166383333Y-112483390D02*
X166335714Y-112531009D01*
X166335714Y-112531009D02*
X166288095Y-112626247D01*
X166288095Y-112626247D02*
X166288095Y-112864342D01*
X166288095Y-112864342D02*
X166335714Y-112959580D01*
X166335714Y-112959580D02*
X166383333Y-113007200D01*
X166383333Y-113007200D02*
X166478571Y-113054819D01*
X166478571Y-113054819D02*
X166716666Y-113054819D01*
X166716666Y-113054819D02*
X166811904Y-113007200D01*
X166811904Y-113007200D02*
X166859523Y-112959580D01*
X161340057Y-120258571D02*
X161292438Y-120163333D01*
X161292438Y-120163333D02*
X161197200Y-120068095D01*
X161197200Y-120068095D02*
X161054342Y-119925238D01*
X161054342Y-119925238D02*
X161006723Y-119830000D01*
X161006723Y-119830000D02*
X161006723Y-119734762D01*
X161244819Y-119782381D02*
X161197200Y-119687143D01*
X161197200Y-119687143D02*
X161101961Y-119591905D01*
X161101961Y-119591905D02*
X160911485Y-119544286D01*
X160911485Y-119544286D02*
X160578152Y-119544286D01*
X160578152Y-119544286D02*
X160387676Y-119591905D01*
X160387676Y-119591905D02*
X160292438Y-119687143D01*
X160292438Y-119687143D02*
X160244819Y-119782381D01*
X160244819Y-119782381D02*
X160244819Y-119972857D01*
X160244819Y-119972857D02*
X160292438Y-120068095D01*
X160292438Y-120068095D02*
X160387676Y-120163333D01*
X160387676Y-120163333D02*
X160578152Y-120210952D01*
X160578152Y-120210952D02*
X160911485Y-120210952D01*
X160911485Y-120210952D02*
X161101961Y-120163333D01*
X161101961Y-120163333D02*
X161197200Y-120068095D01*
X161197200Y-120068095D02*
X161244819Y-119972857D01*
X161244819Y-119972857D02*
X161244819Y-119782381D01*
X161244819Y-121163333D02*
X161244819Y-120591905D01*
X161244819Y-120877619D02*
X160244819Y-120877619D01*
X160244819Y-120877619D02*
X160387676Y-120782381D01*
X160387676Y-120782381D02*
X160482914Y-120687143D01*
X160482914Y-120687143D02*
X160530533Y-120591905D01*
X160244819Y-121496667D02*
X160244819Y-122163333D01*
X160244819Y-122163333D02*
X161244819Y-121734762D01*
D12*
G04 #@! TO.C,SW2*
X162204000Y-93985000D02*
X162204000Y-95315000D01*
X162204000Y-96585000D02*
X162204000Y-101725000D01*
X163534000Y-93985000D02*
X162204000Y-93985000D01*
X164864000Y-96585000D02*
X162204000Y-96585000D01*
X164864000Y-96585000D02*
X164864000Y-101725000D01*
X164864000Y-101725000D02*
X162204000Y-101725000D01*
G04 #@! TO.C,R84*
X163920000Y-109130000D02*
X170460000Y-109130000D01*
X163920000Y-109460000D02*
X163920000Y-109130000D01*
X163920000Y-111540000D02*
X163920000Y-111870000D01*
X163920000Y-111870000D02*
X170460000Y-111870000D01*
X170460000Y-109130000D02*
X170460000Y-109460000D01*
X170460000Y-111870000D02*
X170460000Y-111540000D01*
G04 #@! TO.C,C2*
X148381000Y-81102000D02*
X153541000Y-81102000D01*
X148381000Y-81142000D02*
X153541000Y-81142000D01*
X148382000Y-81182000D02*
X153540000Y-81182000D01*
X148384000Y-81222000D02*
X153538000Y-81222000D01*
X148386000Y-81262000D02*
X153536000Y-81262000D01*
X148389000Y-81302000D02*
X153533000Y-81302000D01*
X148392000Y-81342000D02*
X149921000Y-81342000D01*
X148396000Y-81382000D02*
X149921000Y-81382000D01*
X148401000Y-81422000D02*
X149921000Y-81422000D01*
X148406000Y-81462000D02*
X149921000Y-81462000D01*
X148412000Y-81502000D02*
X149921000Y-81502000D01*
X148418000Y-81542000D02*
X149921000Y-81542000D01*
X148425000Y-81582000D02*
X149921000Y-81582000D01*
X148433000Y-81622000D02*
X149921000Y-81622000D01*
X148442000Y-81662000D02*
X149921000Y-81662000D01*
X148451000Y-81702000D02*
X149921000Y-81702000D01*
X148460000Y-81742000D02*
X149921000Y-81742000D01*
X148471000Y-81782000D02*
X149921000Y-81782000D01*
X148482000Y-81822000D02*
X149921000Y-81822000D01*
X148494000Y-81862000D02*
X149921000Y-81862000D01*
X148506000Y-81902000D02*
X149921000Y-81902000D01*
X148519000Y-81942000D02*
X149921000Y-81942000D01*
X148533000Y-81982000D02*
X149921000Y-81982000D01*
X148548000Y-82022000D02*
X149921000Y-82022000D01*
X148563000Y-82062000D02*
X149921000Y-82062000D01*
X148579000Y-82102000D02*
X149921000Y-82102000D01*
X148596000Y-82142000D02*
X149921000Y-82142000D01*
X148614000Y-82182000D02*
X149921000Y-82182000D01*
X148632000Y-82222000D02*
X149921000Y-82222000D01*
X148652000Y-82262000D02*
X149921000Y-82262000D01*
X148672000Y-82302000D02*
X149921000Y-82302000D01*
X148693000Y-82342000D02*
X149921000Y-82342000D01*
X148715000Y-82382000D02*
X149921000Y-82382000D01*
X148738000Y-82422000D02*
X149921000Y-82422000D01*
X148762000Y-82462000D02*
X149921000Y-82462000D01*
X148786000Y-82502000D02*
X149921000Y-82502000D01*
X148812000Y-82542000D02*
X149921000Y-82542000D01*
X148839000Y-82582000D02*
X149921000Y-82582000D01*
X148867000Y-82622000D02*
X149921000Y-82622000D01*
X148896000Y-82662000D02*
X149921000Y-82662000D01*
X148926000Y-82702000D02*
X149921000Y-82702000D01*
X148958000Y-82742000D02*
X149921000Y-82742000D01*
X148991000Y-82782000D02*
X149921000Y-82782000D01*
X149025000Y-82822000D02*
X149921000Y-82822000D01*
X149060000Y-82862000D02*
X149921000Y-82862000D01*
X149097000Y-82902000D02*
X149921000Y-82902000D01*
X149136000Y-82942000D02*
X149921000Y-82942000D01*
X149176000Y-82982000D02*
X149921000Y-82982000D01*
X149218000Y-83022000D02*
X149921000Y-83022000D01*
X149236000Y-78547225D02*
X149736000Y-78547225D01*
X149262000Y-83062000D02*
X149921000Y-83062000D01*
X149309000Y-83102000D02*
X149921000Y-83102000D01*
X149357000Y-83142000D02*
X149921000Y-83142000D01*
X149408000Y-83182000D02*
X149921000Y-83182000D01*
X149462000Y-83222000D02*
X149921000Y-83222000D01*
X149486000Y-78297225D02*
X149486000Y-78797225D01*
X149518000Y-83262000D02*
X149921000Y-83262000D01*
X149578000Y-83302000D02*
X149921000Y-83302000D01*
X149642000Y-83342000D02*
X149921000Y-83342000D01*
X149710000Y-83382000D02*
X149921000Y-83382000D01*
X149784000Y-83422000D02*
X152138000Y-83422000D01*
X149863000Y-83462000D02*
X152059000Y-83462000D01*
X149950000Y-83502000D02*
X151972000Y-83502000D01*
X150047000Y-83542000D02*
X151875000Y-83542000D01*
X150156000Y-83582000D02*
X151766000Y-83582000D01*
X150284000Y-83622000D02*
X151638000Y-83622000D01*
X150444000Y-83662000D02*
X151478000Y-83662000D01*
X150678000Y-83702000D02*
X151244000Y-83702000D01*
X152001000Y-81342000D02*
X153530000Y-81342000D01*
X152001000Y-81382000D02*
X153526000Y-81382000D01*
X152001000Y-81422000D02*
X153521000Y-81422000D01*
X152001000Y-81462000D02*
X153516000Y-81462000D01*
X152001000Y-81502000D02*
X153510000Y-81502000D01*
X152001000Y-81542000D02*
X153504000Y-81542000D01*
X152001000Y-81582000D02*
X153497000Y-81582000D01*
X152001000Y-81622000D02*
X153489000Y-81622000D01*
X152001000Y-81662000D02*
X153480000Y-81662000D01*
X152001000Y-81702000D02*
X153471000Y-81702000D01*
X152001000Y-81742000D02*
X153462000Y-81742000D01*
X152001000Y-81782000D02*
X153451000Y-81782000D01*
X152001000Y-81822000D02*
X153440000Y-81822000D01*
X152001000Y-81862000D02*
X153428000Y-81862000D01*
X152001000Y-81902000D02*
X153416000Y-81902000D01*
X152001000Y-81942000D02*
X153403000Y-81942000D01*
X152001000Y-81982000D02*
X153389000Y-81982000D01*
X152001000Y-82022000D02*
X153374000Y-82022000D01*
X152001000Y-82062000D02*
X153359000Y-82062000D01*
X152001000Y-82102000D02*
X153343000Y-82102000D01*
X152001000Y-82142000D02*
X153326000Y-82142000D01*
X152001000Y-82182000D02*
X153308000Y-82182000D01*
X152001000Y-82222000D02*
X153290000Y-82222000D01*
X152001000Y-82262000D02*
X153270000Y-82262000D01*
X152001000Y-82302000D02*
X153250000Y-82302000D01*
X152001000Y-82342000D02*
X153229000Y-82342000D01*
X152001000Y-82382000D02*
X153207000Y-82382000D01*
X152001000Y-82422000D02*
X153184000Y-82422000D01*
X152001000Y-82462000D02*
X153160000Y-82462000D01*
X152001000Y-82502000D02*
X153136000Y-82502000D01*
X152001000Y-82542000D02*
X153110000Y-82542000D01*
X152001000Y-82582000D02*
X153083000Y-82582000D01*
X152001000Y-82622000D02*
X153055000Y-82622000D01*
X152001000Y-82662000D02*
X153026000Y-82662000D01*
X152001000Y-82702000D02*
X152996000Y-82702000D01*
X152001000Y-82742000D02*
X152964000Y-82742000D01*
X152001000Y-82782000D02*
X152931000Y-82782000D01*
X152001000Y-82822000D02*
X152897000Y-82822000D01*
X152001000Y-82862000D02*
X152862000Y-82862000D01*
X152001000Y-82902000D02*
X152825000Y-82902000D01*
X152001000Y-82942000D02*
X152786000Y-82942000D01*
X152001000Y-82982000D02*
X152746000Y-82982000D01*
X152001000Y-83022000D02*
X152704000Y-83022000D01*
X152001000Y-83062000D02*
X152660000Y-83062000D01*
X152001000Y-83102000D02*
X152613000Y-83102000D01*
X152001000Y-83142000D02*
X152565000Y-83142000D01*
X152001000Y-83182000D02*
X152514000Y-83182000D01*
X152001000Y-83222000D02*
X152460000Y-83222000D01*
X152001000Y-83262000D02*
X152404000Y-83262000D01*
X152001000Y-83302000D02*
X152344000Y-83302000D01*
X152001000Y-83342000D02*
X152280000Y-83342000D01*
X152001000Y-83382000D02*
X152212000Y-83382000D01*
X153581000Y-81102000D02*
G75*
G02*
X148341000Y-81102000I-2620000J0D01*
G01*
X148341000Y-81102000D02*
G75*
G02*
X153581000Y-81102000I2620000J0D01*
G01*
G04 #@! TO.C,J2*
X166050000Y-108150000D02*
X166050000Y-106900000D01*
X166340000Y-101890000D02*
X173960000Y-101890000D01*
X166340000Y-107860000D02*
X166340000Y-101890000D01*
X166350000Y-105600000D02*
X167100000Y-105600000D01*
X166350000Y-107100000D02*
X168150000Y-107100000D01*
X166350000Y-107850000D02*
X166350000Y-107100000D01*
X167100000Y-102650000D02*
X170150000Y-102650000D01*
X167100000Y-105600000D02*
X167100000Y-102650000D01*
X167300000Y-108150000D02*
X166050000Y-108150000D01*
X168150000Y-107100000D02*
X168150000Y-107850000D01*
X168150000Y-107850000D02*
X166350000Y-107850000D01*
X169650000Y-107100000D02*
X170650000Y-107100000D01*
X169650000Y-107850000D02*
X169650000Y-107100000D01*
X170650000Y-107100000D02*
X170650000Y-107850000D01*
X170650000Y-107850000D02*
X169650000Y-107850000D01*
X172150000Y-107100000D02*
X173950000Y-107100000D01*
X172150000Y-107850000D02*
X172150000Y-107100000D01*
X173200000Y-102650000D02*
X170150000Y-102650000D01*
X173200000Y-105600000D02*
X173200000Y-102650000D01*
X173950000Y-105600000D02*
X173200000Y-105600000D01*
X173950000Y-107100000D02*
X173950000Y-107850000D01*
X173950000Y-107850000D02*
X172150000Y-107850000D01*
X173960000Y-101890000D02*
X173960000Y-107860000D01*
X173960000Y-107860000D02*
X166340000Y-107860000D01*
G04 #@! TO.C,J1*
X167801000Y-93947000D02*
X180421000Y-93947000D01*
X167801000Y-99917000D02*
X167801000Y-93947000D01*
X167811000Y-93957000D02*
X169611000Y-93957000D01*
X167811000Y-94707000D02*
X167811000Y-93957000D01*
X167811000Y-96207000D02*
X168561000Y-96207000D01*
X168561000Y-96207000D02*
X168561000Y-99157000D01*
X168561000Y-99157000D02*
X174111000Y-99157000D01*
X169611000Y-93957000D02*
X169611000Y-94707000D01*
X169611000Y-94707000D02*
X167811000Y-94707000D01*
X171111000Y-93957000D02*
X177111000Y-93957000D01*
X171111000Y-94707000D02*
X171111000Y-93957000D01*
X177111000Y-93957000D02*
X177111000Y-94707000D01*
X177111000Y-94707000D02*
X171111000Y-94707000D01*
X178611000Y-93957000D02*
X180411000Y-93957000D01*
X178611000Y-94707000D02*
X178611000Y-93957000D01*
X179461000Y-93657000D02*
X180711000Y-93657000D01*
X179661000Y-96207000D02*
X179661000Y-99157000D01*
X179661000Y-99157000D02*
X174111000Y-99157000D01*
X180411000Y-93957000D02*
X180411000Y-94707000D01*
X180411000Y-94707000D02*
X178611000Y-94707000D01*
X180411000Y-96207000D02*
X179661000Y-96207000D01*
X180421000Y-93947000D02*
X180421000Y-99917000D01*
X180421000Y-99917000D02*
X167801000Y-99917000D01*
X180711000Y-93657000D02*
X180711000Y-94907000D01*
G04 #@! TO.C,A1*
X140970000Y-77169000D02*
X159010000Y-77169000D01*
X140970000Y-120609000D02*
X140970000Y-77169000D01*
X140970000Y-120609000D02*
X146050000Y-120609000D01*
X143640000Y-79839000D02*
X140970000Y-79839000D01*
X143640000Y-79839000D02*
X143640000Y-117939000D01*
X143640000Y-117939000D02*
X140970000Y-117939000D01*
X146050000Y-112729000D02*
X146050000Y-123149000D01*
X146050000Y-123149000D02*
X153930000Y-123149000D01*
X153930000Y-112729000D02*
X146050000Y-112729000D01*
X153930000Y-123149000D02*
X153930000Y-112729000D01*
X156340000Y-79839000D02*
X159010000Y-79839000D01*
X156340000Y-82379000D02*
X156340000Y-79839000D01*
X156340000Y-82379000D02*
X156340000Y-117939000D01*
X156340000Y-82379000D02*
X159010000Y-82379000D01*
X156340000Y-117939000D02*
X159010000Y-117939000D01*
X159010000Y-77169000D02*
X159010000Y-79839000D01*
X159010000Y-82379000D02*
X159010000Y-120609000D01*
X159010000Y-120609000D02*
X153930000Y-120609000D01*
G04 #@! TO.C,R51*
X179223000Y-102770000D02*
X179223000Y-109310000D01*
X179223000Y-109310000D02*
X179553000Y-109310000D01*
X179553000Y-102770000D02*
X179223000Y-102770000D01*
X181633000Y-102770000D02*
X181963000Y-102770000D01*
X181963000Y-102770000D02*
X181963001Y-109310000D01*
X181963001Y-109310000D02*
X181633000Y-109310000D01*
G04 #@! TO.C,RV1*
D11*
X149000000Y-63800000D02*
X157000000Y-63800000D01*
X157000000Y-71800000D01*
X149000000Y-71800000D01*
X149000000Y-63800000D01*
D12*
G04 #@! TO.C,C3*
X144711000Y-81712000D02*
X144711000Y-89452000D01*
X144711000Y-89452000D02*
X147451000Y-89452000D01*
X147451000Y-81712000D02*
X144711000Y-81712000D01*
X147451000Y-89452000D02*
X147451000Y-81712000D01*
G04 #@! TO.C,R50*
X175380000Y-102740000D02*
X175710000Y-102740000D01*
X175380000Y-109280000D02*
X175380000Y-102740000D01*
X175710000Y-109280000D02*
X175380000Y-109280000D01*
X177790000Y-109280000D02*
X178120000Y-109280000D01*
X178120000Y-102740000D02*
X177790000Y-102740000D01*
X178120000Y-109280000D02*
X178120000Y-102740000D01*
G04 #@! TO.C,R49*
X162149000Y-79388000D02*
X162149000Y-79718000D01*
X162149000Y-82128000D02*
X162149000Y-81798000D01*
X168689000Y-79388000D02*
X162149000Y-79388000D01*
X168689000Y-79718000D02*
X168689000Y-79388000D01*
X168689000Y-81798000D02*
X168689000Y-82128000D01*
X168689000Y-82128000D02*
X162149000Y-82128000D01*
G04 #@! TO.C,R85*
X163920000Y-113230000D02*
X163920000Y-113560000D01*
X163920000Y-115970000D02*
X163920000Y-115640000D01*
X170460000Y-113230000D02*
X163920000Y-113230000D01*
X170460000Y-113560000D02*
X170460000Y-113230000D01*
X170460000Y-115640000D02*
X170460000Y-115970000D01*
X170460000Y-115970000D02*
X163920000Y-115970000D01*
G04 #@! TO.C,Q17*
X163390000Y-121590000D02*
X163390000Y-128810000D01*
X163390000Y-121590000D02*
X170190000Y-121590000D01*
X163390000Y-128810000D02*
X163680000Y-128810000D01*
X164015000Y-121590000D02*
X164015000Y-120360000D01*
X164985000Y-121590000D02*
X164985000Y-120360000D01*
X166305000Y-121590000D02*
X166305000Y-120360000D01*
X167275000Y-121590000D02*
X167275000Y-120360000D01*
X168595000Y-121590000D02*
X168595000Y-120360000D01*
X169565000Y-121590000D02*
X169565000Y-120360000D01*
X169900000Y-128810000D02*
X170190000Y-128810000D01*
X170190000Y-121590000D02*
X170190000Y-128810000D01*
G04 #@! TD*
%LPC*%
D13*
G04 #@! TO.C,H1*
X187000000Y-126000000D03*
G04 #@! TD*
G04 #@! TO.C,H4*
X187000000Y-74000000D03*
G04 #@! TD*
G04 #@! TO.C,H2*
X113000000Y-126000000D03*
G04 #@! TD*
G04 #@! TO.C,H3*
X113000000Y-74000000D03*
G04 #@! TD*
D14*
G04 #@! TO.C,SW2*
X163534000Y-95315000D03*
D15*
X163534000Y-97855000D03*
X163534000Y-100395000D03*
G04 #@! TD*
D16*
G04 #@! TO.C,R84*
X163380000Y-110500000D03*
X171000000Y-110500000D03*
G04 #@! TD*
D17*
G04 #@! TO.C,C2*
X150961000Y-79852000D03*
D16*
X150961000Y-82352000D03*
G04 #@! TD*
D18*
G04 #@! TO.C,J2*
X168900000Y-105400000D03*
D19*
X171400000Y-105400000D03*
G04 #@! TD*
D20*
G04 #@! TO.C,J1*
X177861000Y-96407000D03*
D21*
X175361000Y-96407000D03*
X172861000Y-96407000D03*
X170361000Y-96407000D03*
G04 #@! TD*
D22*
G04 #@! TO.C,A1*
X157610000Y-81109000D03*
D23*
X157610000Y-83649000D03*
X157610000Y-86189000D03*
X157610000Y-88729000D03*
X157610000Y-91269000D03*
X157610000Y-93809000D03*
X157610000Y-96349000D03*
X157610000Y-98889000D03*
X157610000Y-101429000D03*
X157610000Y-103969000D03*
X157610000Y-106509000D03*
X157610000Y-109049000D03*
X157610000Y-111589000D03*
X157610000Y-114129000D03*
X157610000Y-116669000D03*
X142370000Y-116669000D03*
X142370000Y-114129000D03*
X142370000Y-111589000D03*
X142370000Y-109049000D03*
X142370000Y-106509000D03*
X142370000Y-103969000D03*
X142370000Y-101429000D03*
X142370000Y-98889000D03*
X142370000Y-96349000D03*
X142370000Y-93809000D03*
X142370000Y-91269000D03*
X142370000Y-88729000D03*
X142370000Y-86189000D03*
X142370000Y-83649000D03*
X142370000Y-81109000D03*
G04 #@! TD*
D16*
G04 #@! TO.C,R51*
X180593000Y-102230000D03*
X180592999Y-109850000D03*
G04 #@! TD*
D24*
G04 #@! TO.C,RV1*
X153000000Y-65260000D03*
X155540000Y-67800000D03*
X153000000Y-70340000D03*
G04 #@! TD*
D25*
G04 #@! TO.C,C3*
X146081000Y-88082000D03*
X146081000Y-83082000D03*
G04 #@! TD*
D16*
G04 #@! TO.C,R50*
X176750000Y-109820000D03*
X176750000Y-102200000D03*
G04 #@! TD*
G04 #@! TO.C,R49*
X169229000Y-80758000D03*
X161609000Y-80758000D03*
G04 #@! TD*
G04 #@! TO.C,R85*
X171000000Y-114600000D03*
X163380000Y-114600000D03*
G04 #@! TD*
D26*
G04 #@! TO.C,Q17*
X164500000Y-119200000D03*
D27*
X166790000Y-119200000D03*
X169080000Y-119200000D03*
D28*
X166790000Y-126633000D03*
G04 #@! TD*
%LPD*%
M02*
