G04 #@! TF.GenerationSoftware,KiCad,Pcbnew,9.0.6-9.0.6~ubuntu22.04.1*
G04 #@! TF.CreationDate,2025-11-27T17:33:19+09:00*
G04 #@! TF.ProjectId,LineSensor,4c696e65-5365-46e7-936f-722e6b696361,rev?*
G04 #@! TF.SameCoordinates,Original*
G04 #@! TF.FileFunction,Soldermask,Top*
G04 #@! TF.FilePolarity,Negative*
%FSLAX46Y46*%
G04 Gerber Fmt 4.6, Leading zero omitted, Abs format (unit mm)*
G04 Created by KiCad (PCBNEW 9.0.6-9.0.6~ubuntu22.04.1) date 2025-11-27 17:33:19*
%MOMM*%
%LPD*%
G01*
G04 APERTURE LIST*
G04 Aperture macros list*
%AMRoundRect*
0 Rectangle with rounded corners*
0 $1 Rounding radius*
0 $2 $3 $4 $5 $6 $7 $8 $9 X,Y pos of 4 corners*
0 Add a 4 corners polygon primitive as box body*
4,1,4,$2,$3,$4,$5,$6,$7,$8,$9,$2,$3,0*
0 Add four circle primitives for the rounded corners*
1,1,$1+$1,$2,$3*
1,1,$1+$1,$4,$5*
1,1,$1+$1,$6,$7*
1,1,$1+$1,$8,$9*
0 Add four rect primitives between the rounded corners*
20,1,$1+$1,$2,$3,$4,$5,0*
20,1,$1+$1,$4,$5,$6,$7,0*
20,1,$1+$1,$6,$7,$8,$9,0*
20,1,$1+$1,$8,$9,$2,$3,0*%
G04 Aperture macros list end*
%ADD10RoundRect,0.237500X-0.123751X0.321857X-0.315092X-0.140083X0.123751X-0.321857X0.315092X0.140083X0*%
%ADD11RoundRect,0.069150X-0.161350X0.480850X-0.161350X-0.480850X0.161350X-0.480850X0.161350X0.480850X0*%
%ADD12RoundRect,0.072450X-0.169050X0.477550X-0.169050X-0.477550X0.169050X-0.477550X0.169050X0.477550X0*%
%ADD13RoundRect,0.218750X-0.335876X-0.026517X-0.026517X-0.335876X0.335876X0.026517X0.026517X0.335876X0*%
%ADD14RoundRect,0.218750X-0.319536X0.106829X-0.155646X-0.298814X0.319536X-0.106829X0.155646X0.298814X0*%
%ADD15RoundRect,0.237500X0.008839X0.344715X-0.344715X-0.008839X-0.008839X-0.344715X0.344715X0.008839X0*%
%ADD16RoundRect,0.237500X0.313858X-0.142827X0.126555X0.320765X-0.313858X0.142827X-0.126555X-0.320765X0*%
%ADD17RoundRect,0.237500X-0.250000X-0.237500X0.250000X-0.237500X0.250000X0.237500X-0.250000X0.237500X0*%
%ADD18RoundRect,0.069150X-0.505993X0.034945X0.382502X-0.333081X0.505993X-0.034945X-0.382502X0.333081X0*%
%ADD19RoundRect,0.072450X-0.505891X0.026569X0.376506X-0.338932X0.505891X-0.026569X-0.376506X0.338932X0*%
%ADD20RoundRect,0.225000X0.225000X0.250000X-0.225000X0.250000X-0.225000X-0.250000X0.225000X-0.250000X0*%
%ADD21RoundRect,0.237500X-0.315092X0.140083X-0.123751X-0.321857X0.315092X-0.140083X0.123751X0.321857X0*%
%ADD22RoundRect,0.237500X0.123751X-0.321857X0.315092X0.140083X-0.123751X0.321857X-0.315092X-0.140083X0*%
%ADD23RoundRect,0.237500X-0.237500X0.250000X-0.237500X-0.250000X0.237500X-0.250000X0.237500X0.250000X0*%
%ADD24RoundRect,0.069150X-0.333081X0.382502X0.034945X-0.505993X0.333081X-0.382502X-0.034945X0.505993X0*%
%ADD25RoundRect,0.072450X-0.338932X0.376506X0.026569X-0.505891X0.338932X-0.376506X-0.026569X0.505891X0*%
%ADD26RoundRect,0.069150X0.382502X0.333081X-0.505993X-0.034945X-0.382502X-0.333081X0.505993X0.034945X0*%
%ADD27RoundRect,0.072450X0.376506X0.338932X-0.505891X-0.026569X-0.376506X-0.338932X0.505891X0.026569X0*%
%ADD28RoundRect,0.237500X-0.269748X-0.214807X0.228349X-0.258385X0.269748X0.214807X-0.228349X0.258385X0*%
%ADD29RoundRect,0.069150X0.333081X-0.382502X-0.034945X0.505993X-0.333081X0.382502X0.034945X-0.505993X0*%
%ADD30RoundRect,0.072450X0.338932X-0.376506X-0.026569X0.505891X-0.338932X0.376506X0.026569X-0.505891X0*%
%ADD31RoundRect,0.069150X-0.454104X0.225921X0.225921X-0.454104X0.454104X-0.225921X-0.225921X0.454104X0*%
%ADD32RoundRect,0.072450X-0.457215X0.218142X0.218142X-0.457215X0.457215X-0.218142X-0.218142X0.457215X0*%
%ADD33RoundRect,0.150000X-0.825000X-0.150000X0.825000X-0.150000X0.825000X0.150000X-0.825000X0.150000X0*%
%ADD34RoundRect,0.218750X0.256250X-0.218750X0.256250X0.218750X-0.256250X0.218750X-0.256250X-0.218750X0*%
%ADD35RoundRect,0.218750X0.104036X0.320456X-0.300161X0.153032X-0.104036X-0.320456X0.300161X-0.153032X0*%
%ADD36RoundRect,0.237500X-0.140083X-0.315092X0.321857X-0.123751X0.140083X0.315092X-0.321857X0.123751X0*%
%ADD37RoundRect,0.218750X-0.256250X0.218750X-0.256250X-0.218750X0.256250X-0.218750X0.256250X0.218750X0*%
%ADD38RoundRect,0.237500X0.250000X0.237500X-0.250000X0.237500X-0.250000X-0.237500X0.250000X-0.237500X0*%
%ADD39RoundRect,0.218750X0.153032X-0.300161X0.320456X0.104036X-0.153032X0.300161X-0.320456X-0.104036X0*%
%ADD40RoundRect,0.218750X-0.104036X-0.320456X0.300161X-0.153032X0.104036X0.320456X-0.300161X0.153032X0*%
%ADD41RoundRect,0.237500X-0.321857X-0.123751X0.140083X-0.315092X0.321857X0.123751X-0.140083X0.315092X0*%
%ADD42RoundRect,0.225000X0.250000X-0.225000X0.250000X0.225000X-0.250000X0.225000X-0.250000X-0.225000X0*%
%ADD43RoundRect,0.218750X-0.218750X-0.256250X0.218750X-0.256250X0.218750X0.256250X-0.218750X0.256250X0*%
%ADD44RoundRect,0.237500X-0.008839X-0.344715X0.344715X0.008839X0.008839X0.344715X-0.344715X-0.008839X0*%
%ADD45RoundRect,0.069150X0.161350X-0.480850X0.161350X0.480850X-0.161350X0.480850X-0.161350X-0.480850X0*%
%ADD46RoundRect,0.072450X0.169050X-0.477550X0.169050X0.477550X-0.169050X0.477550X-0.169050X-0.477550X0*%
%ADD47RoundRect,0.237500X0.321857X0.123751X-0.140083X0.315092X-0.321857X-0.123751X0.140083X-0.315092X0*%
%ADD48RoundRect,0.237500X0.237500X-0.250000X0.237500X0.250000X-0.237500X0.250000X-0.237500X-0.250000X0*%
%ADD49RoundRect,0.069150X-0.034945X-0.505993X0.333081X0.382502X0.034945X0.505993X-0.333081X-0.382502X0*%
%ADD50RoundRect,0.072450X-0.026569X-0.505891X0.338932X0.376506X0.026569X0.505891X-0.338932X-0.376506X0*%
%ADD51RoundRect,0.237500X0.021239X-0.344173X0.342632X0.038849X-0.021239X0.344173X-0.342632X-0.038849X0*%
%ADD52C,3.200000*%
%ADD53RoundRect,0.069150X0.480850X0.161350X-0.480850X0.161350X-0.480850X-0.161350X0.480850X-0.161350X0*%
%ADD54RoundRect,0.072450X0.477550X0.169050X-0.477550X0.169050X-0.477550X-0.169050X0.477550X-0.169050X0*%
%ADD55RoundRect,0.237500X0.343780X-0.026868X0.009214X0.344705X-0.343780X0.026868X-0.009214X-0.344705X0*%
%ADD56RoundRect,0.237500X-0.344715X0.008839X0.008839X-0.344715X0.344715X-0.008839X-0.008839X0.344715X0*%
%ADD57RoundRect,0.069150X-0.480850X-0.161350X0.480850X-0.161350X0.480850X0.161350X-0.480850X0.161350X0*%
%ADD58RoundRect,0.072450X-0.477550X-0.169050X0.477550X-0.169050X0.477550X0.169050X-0.477550X0.169050X0*%
%ADD59RoundRect,0.218750X0.300161X0.153032X-0.104036X0.320456X-0.300161X-0.153032X0.104036X-0.320456X0*%
%ADD60RoundRect,0.069150X0.505993X-0.034945X-0.382502X0.333081X-0.505993X0.034945X0.382502X-0.333081X0*%
%ADD61RoundRect,0.072450X0.505891X-0.026569X-0.376506X0.338932X-0.505891X0.026569X0.376506X-0.338932X0*%
%ADD62RoundRect,0.237500X0.140083X0.315092X-0.321857X0.123751X-0.140083X-0.315092X0.321857X-0.123751X0*%
%ADD63RoundRect,0.237500X-0.228349X-0.258385X0.269748X-0.214807X0.228349X0.258385X-0.269748X0.214807X0*%
%ADD64RoundRect,0.069150X-0.382502X-0.333081X0.505993X0.034945X0.382502X0.333081X-0.505993X-0.034945X0*%
%ADD65RoundRect,0.072450X-0.376506X-0.338932X0.505891X0.026569X0.376506X0.338932X-0.505891X-0.026569X0*%
%ADD66RoundRect,0.218750X-0.300161X-0.153032X0.104036X-0.320456X0.300161X0.153032X-0.104036X0.320456X0*%
%ADD67RoundRect,0.069150X0.225921X0.454104X-0.454104X-0.225921X-0.225921X-0.454104X0.454104X0.225921X0*%
%ADD68RoundRect,0.072450X0.218142X0.457215X-0.457215X-0.218142X-0.218142X-0.457215X0.457215X0.218142X0*%
%ADD69RoundRect,0.225000X-0.225000X-0.250000X0.225000X-0.250000X0.225000X0.250000X-0.225000X0.250000X0*%
%ADD70RoundRect,0.237500X0.344173X0.021239X-0.038849X0.342632X-0.344173X-0.021239X0.038849X-0.342632X0*%
%ADD71RoundRect,0.069150X-0.225921X-0.454104X0.454104X0.225921X0.225921X0.454104X-0.454104X-0.225921X0*%
%ADD72RoundRect,0.072450X-0.218142X-0.457215X0.457215X0.218142X0.218142X0.457215X-0.457215X-0.218142X0*%
%ADD73RoundRect,0.237500X0.112087X0.326102X-0.331418X0.095228X-0.112087X-0.326102X0.331418X-0.095228X0*%
%ADD74RoundRect,0.218750X-0.153032X0.300161X-0.320456X-0.104036X0.153032X-0.300161X0.320456X0.104036X0*%
%ADD75RoundRect,0.218750X0.026517X-0.335876X0.335876X-0.026517X-0.026517X0.335876X-0.335876X0.026517X0*%
%ADD76RoundRect,0.237500X0.326102X-0.112087X0.095228X0.331418X-0.326102X0.112087X-0.095228X-0.331418X0*%
%ADD77RoundRect,0.218750X0.218750X0.256250X-0.218750X0.256250X-0.218750X-0.256250X0.218750X-0.256250X0*%
%ADD78RoundRect,0.218750X-0.026517X0.335876X-0.335876X0.026517X0.026517X-0.335876X0.335876X-0.026517X0*%
%ADD79RoundRect,0.218750X0.335876X0.026517X0.026517X0.335876X-0.335876X-0.026517X-0.026517X-0.335876X0*%
%ADD80RoundRect,0.218750X0.320456X-0.104036X0.153032X0.300161X-0.320456X0.104036X-0.153032X-0.300161X0*%
%ADD81RoundRect,0.069150X0.454104X-0.225921X-0.225921X0.454104X-0.454104X0.225921X0.225921X-0.454104X0*%
%ADD82RoundRect,0.072450X0.457215X-0.218142X-0.218142X0.457215X-0.457215X0.218142X0.218142X-0.457215X0*%
%ADD83RoundRect,0.069150X0.034945X0.505993X-0.333081X-0.382502X-0.034945X-0.505993X0.333081X0.382502X0*%
%ADD84RoundRect,0.072450X0.026569X0.505891X-0.338932X-0.376506X-0.026569X-0.505891X0.338932X0.376506X0*%
%ADD85R,1.700000X1.700000*%
%ADD86C,1.700000*%
%ADD87C,1.600000*%
%ADD88RoundRect,0.250000X-0.550000X0.550000X-0.550000X-0.550000X0.550000X-0.550000X0.550000X0.550000X0*%
%ADD89RoundRect,0.250000X-0.600000X-0.750000X0.600000X-0.750000X0.600000X0.750000X-0.600000X0.750000X0*%
%ADD90O,1.700000X2.000000*%
%ADD91RoundRect,0.250000X0.600000X0.725000X-0.600000X0.725000X-0.600000X-0.725000X0.600000X-0.725000X0*%
%ADD92O,1.700000X1.950000*%
%ADD93R,1.600000X1.600000*%
%ADD94O,1.600000X1.600000*%
%ADD95C,1.400000*%
%ADD96C,2.000000*%
%ADD97R,1.717500X1.800000*%
%ADD98O,1.717500X1.800000*%
G04 APERTURE END LIST*
D10*
G04 #@! TO.C,R15*
X164798398Y-56813918D03*
X164100000Y-58500000D03*
G04 #@! TD*
D11*
G04 #@! TO.C,Q13*
X149520500Y-148000000D03*
D12*
X150498500Y-148000000D03*
G04 #@! TD*
D13*
G04 #@! TO.C,D34*
X181262958Y-131262958D03*
X182376652Y-132376652D03*
G04 #@! TD*
D14*
G04 #@! TO.C,D45*
X166562294Y-140993116D03*
X167152300Y-142453430D03*
G04 #@! TD*
D15*
G04 #@! TO.C,R16*
X180100000Y-65300000D03*
X178809530Y-66590470D03*
G04 #@! TD*
D16*
G04 #@! TO.C,R18*
X172463000Y-140280000D03*
X171779342Y-138587890D03*
G04 #@! TD*
D17*
G04 #@! TO.C,R22*
X139675000Y-56900000D03*
X141500000Y-56900000D03*
G04 #@! TD*
D18*
G04 #@! TO.C,Q16*
X194162721Y-118811805D03*
D19*
X194536986Y-117908251D03*
G04 #@! TD*
D20*
G04 #@! TO.C,C10*
X158648226Y-141620423D03*
X157098226Y-141620423D03*
G04 #@! TD*
D21*
G04 #@! TO.C,R10*
X129401602Y-58813920D03*
X130100000Y-60500000D03*
G04 #@! TD*
D22*
G04 #@! TO.C,R39*
X135189407Y-143363307D03*
X135887805Y-141677227D03*
G04 #@! TD*
D23*
G04 #@! TO.C,R21*
X150200000Y-59100000D03*
X150200000Y-60925000D03*
G04 #@! TD*
D24*
G04 #@! TO.C,Q14*
X167926805Y-144529715D03*
D25*
X168830359Y-144155450D03*
G04 #@! TD*
D26*
G04 #@! TO.C,Q2*
X105470285Y-117925805D03*
D27*
X105844550Y-118829359D03*
G04 #@! TD*
D23*
G04 #@! TO.C,R27*
X193600000Y-92275000D03*
X193600000Y-94100000D03*
G04 #@! TD*
D28*
G04 #@! TO.C,R44*
X104200000Y-96999999D03*
X106018056Y-97159059D03*
G04 #@! TD*
D29*
G04 #@! TO.C,Q10*
X132074195Y-55470285D03*
D30*
X131170641Y-55844550D03*
G04 #@! TD*
D31*
G04 #@! TO.C,Q15*
X183602067Y-134280183D03*
D32*
X184293618Y-133588632D03*
G04 #@! TD*
D33*
G04 #@! TO.C,U8*
X165403000Y-65278000D03*
X165403000Y-66548000D03*
X165403000Y-67818000D03*
X165403000Y-69088000D03*
X170353000Y-69088000D03*
X170353000Y-67818000D03*
X170353000Y-66548000D03*
X170353000Y-65278000D03*
G04 #@! TD*
D34*
G04 #@! TO.C,D36*
X151827000Y-55655000D03*
X151827000Y-54080000D03*
G04 #@! TD*
D35*
G04 #@! TO.C,D41*
X109152976Y-116919391D03*
X107697866Y-117522117D03*
G04 #@! TD*
D36*
G04 #@! TO.C,R3*
X109013920Y-120498398D03*
X110700000Y-119800000D03*
G04 #@! TD*
D23*
G04 #@! TO.C,R25*
X173585000Y-64488000D03*
X173585000Y-66313000D03*
G04 #@! TD*
D37*
G04 #@! TO.C,D44*
X150000000Y-144212500D03*
X150000000Y-145787500D03*
G04 #@! TD*
D38*
G04 #@! TO.C,R36*
X195840500Y-102981000D03*
X194015500Y-102981000D03*
G04 #@! TD*
D39*
G04 #@! TO.C,D49*
X166919391Y-59152976D03*
X167522117Y-57697866D03*
G04 #@! TD*
D33*
G04 #@! TO.C,U6*
X141567000Y-59872000D03*
X141567000Y-61142000D03*
X141567000Y-62412000D03*
X141567000Y-63682000D03*
X146517000Y-63682000D03*
X146517000Y-62412000D03*
X146517000Y-61142000D03*
X146517000Y-59872000D03*
G04 #@! TD*
D23*
G04 #@! TO.C,R29*
X153708000Y-132781000D03*
X153708000Y-134606000D03*
G04 #@! TD*
G04 #@! TO.C,R5*
X135378000Y-127868000D03*
X135378000Y-129693000D03*
G04 #@! TD*
D40*
G04 #@! TO.C,D47*
X190847024Y-83080609D03*
X192302134Y-82477883D03*
G04 #@! TD*
D41*
G04 #@! TO.C,R12*
X106425960Y-85486801D03*
X108112040Y-86185199D03*
G04 #@! TD*
D33*
G04 #@! TO.C,U9*
X157075000Y-134701000D03*
X157075000Y-135971000D03*
X157075000Y-137241000D03*
X157075000Y-138511000D03*
X162025000Y-138511000D03*
X162025000Y-137241000D03*
X162025000Y-135971000D03*
X162025000Y-134701000D03*
G04 #@! TD*
D20*
G04 #@! TO.C,C8*
X143250000Y-66200000D03*
X141700000Y-66200000D03*
G04 #@! TD*
D42*
G04 #@! TO.C,C6*
X132900000Y-137650000D03*
X132900000Y-136100000D03*
G04 #@! TD*
D23*
G04 #@! TO.C,R7*
X120720000Y-107267500D03*
X120720000Y-109092500D03*
G04 #@! TD*
D43*
G04 #@! TO.C,D46*
X194212500Y-100000000D03*
X195787500Y-100000000D03*
G04 #@! TD*
D23*
G04 #@! TO.C,R26*
X162000000Y-63200000D03*
X162000000Y-65025000D03*
G04 #@! TD*
D33*
G04 #@! TO.C,U5*
X120425000Y-80995000D03*
X120425000Y-82265000D03*
X120425000Y-83535000D03*
X120425000Y-84805000D03*
X125375000Y-84805000D03*
X125375000Y-83535000D03*
X125375000Y-82265000D03*
X125375000Y-80995000D03*
G04 #@! TD*
D44*
G04 #@! TO.C,R46*
X119609530Y-134590470D03*
X120900000Y-133300000D03*
G04 #@! TD*
D45*
G04 #@! TO.C,Q9*
X150479500Y-52000000D03*
D46*
X149501500Y-52000000D03*
G04 #@! TD*
D47*
G04 #@! TO.C,R56*
X193400000Y-114900000D03*
X191713920Y-114201602D03*
G04 #@! TD*
D23*
G04 #@! TO.C,R8*
X110402000Y-105949500D03*
X110402000Y-107774500D03*
G04 #@! TD*
D48*
G04 #@! TO.C,R38*
X147032000Y-145894000D03*
X147032000Y-144069000D03*
G04 #@! TD*
G04 #@! TO.C,R17*
X152876000Y-145869000D03*
X152876000Y-144044000D03*
G04 #@! TD*
D22*
G04 #@! TO.C,R1*
X137948801Y-144309040D03*
X138647199Y-142622960D03*
G04 #@! TD*
D49*
G04 #@! TO.C,Q8*
X168811805Y-55837279D03*
D50*
X167908251Y-55463014D03*
G04 #@! TD*
D51*
G04 #@! TO.C,R2*
X121826912Y-136498032D03*
X123000000Y-135100000D03*
G04 #@! TD*
D42*
G04 #@! TO.C,C5*
X112700000Y-115900000D03*
X112700000Y-114350000D03*
G04 #@! TD*
D23*
G04 #@! TO.C,R40*
X154717000Y-54036500D03*
X154717000Y-55861500D03*
G04 #@! TD*
D52*
G04 #@! TO.C,H1*
X187000000Y-126000000D03*
G04 #@! TD*
D53*
G04 #@! TO.C,Q1*
X102000000Y-99520500D03*
D54*
X102000000Y-100498500D03*
G04 #@! TD*
D55*
G04 #@! TO.C,R55*
X180521164Y-134656240D03*
X179300000Y-133300000D03*
G04 #@! TD*
D56*
G04 #@! TO.C,R42*
X119700000Y-65000000D03*
X120990470Y-66290470D03*
G04 #@! TD*
D57*
G04 #@! TO.C,Q5*
X198000000Y-100479500D03*
D58*
X198000000Y-99501500D03*
G04 #@! TD*
D59*
G04 #@! TO.C,D39*
X109152976Y-83080609D03*
X107697866Y-82477883D03*
G04 #@! TD*
D60*
G04 #@! TO.C,Q12*
X105837279Y-81188195D03*
D61*
X105463014Y-82091749D03*
G04 #@! TD*
D23*
G04 #@! TO.C,R23*
X128800199Y-80385460D03*
X128800199Y-82210460D03*
G04 #@! TD*
D62*
G04 #@! TO.C,R14*
X195000000Y-88500000D03*
X193313920Y-89198398D03*
G04 #@! TD*
D33*
G04 #@! TO.C,U2*
X178066000Y-118458000D03*
X178066000Y-119728000D03*
X178066000Y-120998000D03*
X178066000Y-122268000D03*
X183016000Y-122268000D03*
X183016000Y-120998000D03*
X183016000Y-119728000D03*
X183016000Y-118458000D03*
G04 #@! TD*
D63*
G04 #@! TO.C,R4*
X104042944Y-102962060D03*
X105861000Y-102803000D03*
G04 #@! TD*
D17*
G04 #@! TO.C,R30*
X161375000Y-132000000D03*
X163200000Y-132000000D03*
G04 #@! TD*
D10*
G04 #@! TO.C,R33*
X170250398Y-58781920D03*
X169552000Y-60468000D03*
G04 #@! TD*
D64*
G04 #@! TO.C,Q6*
X194529715Y-82074195D03*
D65*
X194155450Y-81170641D03*
G04 #@! TD*
D66*
G04 #@! TO.C,D35*
X190847024Y-116919391D03*
X192302134Y-117522117D03*
G04 #@! TD*
D67*
G04 #@! TO.C,Q3*
X115719817Y-133602067D03*
D68*
X116411368Y-134293618D03*
G04 #@! TD*
D33*
G04 #@! TO.C,U7*
X185262077Y-92224057D03*
X185262077Y-93494057D03*
X185262077Y-94764057D03*
X185262077Y-96034057D03*
X190212077Y-96034057D03*
X190212077Y-94764057D03*
X190212077Y-93494057D03*
X190212077Y-92224057D03*
G04 #@! TD*
D69*
G04 #@! TO.C,C4*
X178111601Y-125335796D03*
X179661601Y-125335796D03*
G04 #@! TD*
D56*
G04 #@! TO.C,R11*
X122109530Y-62709530D03*
X123400000Y-64000000D03*
G04 #@! TD*
D20*
G04 #@! TO.C,C11*
X187275000Y-99200000D03*
X185725000Y-99200000D03*
G04 #@! TD*
D47*
G04 #@! TO.C,R20*
X194600000Y-112100000D03*
X192913920Y-111401602D03*
G04 #@! TD*
D21*
G04 #@! TO.C,R41*
X135001602Y-56113920D03*
X135700000Y-57800000D03*
G04 #@! TD*
D70*
G04 #@! TO.C,R19*
X184200000Y-130600000D03*
X182801968Y-129426912D03*
G04 #@! TD*
D71*
G04 #@! TO.C,Q7*
X184280183Y-66397933D03*
D72*
X183588632Y-65706382D03*
G04 #@! TD*
D44*
G04 #@! TO.C,R34*
X183109530Y-70790470D03*
X184400000Y-69500000D03*
G04 #@! TD*
D73*
G04 #@! TO.C,R35*
X193618794Y-85157308D03*
X192000000Y-86000000D03*
G04 #@! TD*
D36*
G04 #@! TO.C,R45*
X106413920Y-114698398D03*
X108100000Y-114000000D03*
G04 #@! TD*
D74*
G04 #@! TO.C,D43*
X133080609Y-140847024D03*
X132477883Y-142302134D03*
G04 #@! TD*
D75*
G04 #@! TO.C,D48*
X181262958Y-68737042D03*
X182376652Y-67623348D03*
G04 #@! TD*
D38*
G04 #@! TO.C,R28*
X187100000Y-89400000D03*
X185275000Y-89400000D03*
G04 #@! TD*
D23*
G04 #@! TO.C,R6*
X124795000Y-126678000D03*
X124795000Y-128503000D03*
G04 #@! TD*
D33*
G04 #@! TO.C,U3*
X112743000Y-107791000D03*
X112743000Y-109061000D03*
X112743000Y-110331000D03*
X112743000Y-111601000D03*
X117693000Y-111601000D03*
X117693000Y-110331000D03*
X117693000Y-109061000D03*
X117693000Y-107791000D03*
G04 #@! TD*
D52*
G04 #@! TO.C,H4*
X187000000Y-74000000D03*
G04 #@! TD*
D23*
G04 #@! TO.C,R9*
X148612000Y-53976500D03*
X148612000Y-55801500D03*
G04 #@! TD*
D42*
G04 #@! TO.C,C7*
X120400000Y-88400000D03*
X120400000Y-86850000D03*
G04 #@! TD*
D76*
G04 #@! TO.C,R37*
X169721346Y-141409397D03*
X168878654Y-139790603D03*
G04 #@! TD*
D77*
G04 #@! TO.C,D40*
X105787500Y-100000000D03*
X104212500Y-100000000D03*
G04 #@! TD*
D33*
G04 #@! TO.C,U4*
X127217000Y-128782000D03*
X127217000Y-130052000D03*
X127217000Y-131322000D03*
X127217000Y-132592000D03*
X132167000Y-132592000D03*
X132167000Y-131322000D03*
X132167000Y-130052000D03*
X132167000Y-128782000D03*
G04 #@! TD*
D38*
G04 #@! TO.C,R13*
X195958500Y-97048000D03*
X194133500Y-97048000D03*
G04 #@! TD*
D78*
G04 #@! TO.C,D42*
X118737042Y-131262958D03*
X117623348Y-132376652D03*
G04 #@! TD*
D79*
G04 #@! TO.C,D38*
X118737042Y-68737042D03*
X117623348Y-67623348D03*
G04 #@! TD*
D80*
G04 #@! TO.C,D37*
X133080609Y-59152976D03*
X132477883Y-57697866D03*
G04 #@! TD*
D23*
G04 #@! TO.C,R24*
X117700000Y-78575000D03*
X117700000Y-80400000D03*
G04 #@! TD*
D81*
G04 #@! TO.C,Q11*
X116397933Y-65719817D03*
D82*
X115706382Y-66411368D03*
G04 #@! TD*
D20*
G04 #@! TO.C,C9*
X167121000Y-71327000D03*
X165571000Y-71327000D03*
G04 #@! TD*
D52*
G04 #@! TO.C,H2*
X113000000Y-126000000D03*
G04 #@! TD*
G04 #@! TO.C,H3*
X113000000Y-74000000D03*
G04 #@! TD*
D83*
G04 #@! TO.C,Q4*
X131189195Y-144162721D03*
D84*
X132092749Y-144536986D03*
G04 #@! TD*
D23*
G04 #@! TO.C,R31*
X174881338Y-116597540D03*
X174881338Y-118422540D03*
G04 #@! TD*
D41*
G04 #@! TO.C,R43*
X108694920Y-79921602D03*
X110381000Y-80620000D03*
G04 #@! TD*
D23*
G04 #@! TO.C,R32*
X186612537Y-117367998D03*
X186612537Y-119193000D03*
G04 #@! TD*
D85*
G04 #@! TO.C,SW2*
X163534000Y-95315000D03*
D86*
X163534000Y-97855000D03*
X163534000Y-100395000D03*
G04 #@! TD*
D87*
G04 #@! TO.C,R84*
X163380000Y-110500000D03*
X171000000Y-110500000D03*
G04 #@! TD*
D88*
G04 #@! TO.C,C2*
X150961000Y-79852000D03*
D87*
X150961000Y-82352000D03*
G04 #@! TD*
D89*
G04 #@! TO.C,J2*
X168900000Y-105400000D03*
D90*
X171400000Y-105400000D03*
G04 #@! TD*
D91*
G04 #@! TO.C,J1*
X177861000Y-96407000D03*
D92*
X175361000Y-96407000D03*
X172861000Y-96407000D03*
X170361000Y-96407000D03*
G04 #@! TD*
D93*
G04 #@! TO.C,A1*
X157610000Y-81109000D03*
D94*
X157610000Y-83649000D03*
X157610000Y-86189000D03*
X157610000Y-88729000D03*
X157610000Y-91269000D03*
X157610000Y-93809000D03*
X157610000Y-96349000D03*
X157610000Y-98889000D03*
X157610000Y-101429000D03*
X157610000Y-103969000D03*
X157610000Y-106509000D03*
X157610000Y-109049000D03*
X157610000Y-111589000D03*
X157610000Y-114129000D03*
X157610000Y-116669000D03*
X142370000Y-116669000D03*
X142370000Y-114129000D03*
X142370000Y-111589000D03*
X142370000Y-109049000D03*
X142370000Y-106509000D03*
X142370000Y-103969000D03*
X142370000Y-101429000D03*
X142370000Y-98889000D03*
X142370000Y-96349000D03*
X142370000Y-93809000D03*
X142370000Y-91269000D03*
X142370000Y-88729000D03*
X142370000Y-86189000D03*
X142370000Y-83649000D03*
X142370000Y-81109000D03*
G04 #@! TD*
D87*
G04 #@! TO.C,R51*
X180593000Y-102230000D03*
X180592999Y-109850000D03*
G04 #@! TD*
D95*
G04 #@! TO.C,RV1*
X153000000Y-65260000D03*
X155540000Y-67800000D03*
X153000000Y-70340000D03*
G04 #@! TD*
D96*
G04 #@! TO.C,C3*
X146081000Y-88082000D03*
X146081000Y-83082000D03*
G04 #@! TD*
D87*
G04 #@! TO.C,R50*
X176750000Y-109820000D03*
X176750000Y-102200000D03*
G04 #@! TD*
G04 #@! TO.C,R49*
X169229000Y-80758000D03*
X161609000Y-80758000D03*
G04 #@! TD*
G04 #@! TO.C,R85*
X171000000Y-114600000D03*
X163380000Y-114600000D03*
G04 #@! TD*
D97*
G04 #@! TO.C,Q17*
X164500000Y-119200000D03*
D98*
X166790000Y-119200000D03*
X169080000Y-119200000D03*
G04 #@! TD*
M02*
