M48
; DRILL file {KiCad 9.0.6-9.0.6~ubuntu22.04.1} date 2025-11-27T17:33:19+0900
; FORMAT={-:-/ absolute / metric / decimal}
; #@! TF.CreationDate,2025-11-27T17:33:19+09:00
; #@! TF.GenerationSoftware,Kicad,Pcbnew,9.0.6-9.0.6~ubuntu22.04.1
; #@! TF.FileFunction,Plated,1,2,PTH
FMAT,2
METRIC
; #@! TA.AperFunction,Plated,PTH,ViaDrill
T1C0.300
; #@! TA.AperFunction,Plated,PTH,ViaDrill
T2C0.500
; #@! TA.AperFunction,Plated,PTH,ViaDrill
T3C0.600
; #@! TA.AperFunction,Plated,PTH,ViaDrill
T4C0.700
; #@! TA.AperFunction,Plated,PTH,ComponentDrill
T5C0.800
; #@! TA.AperFunction,Plated,PTH,ViaDrill
T6C0.900
; #@! TA.AperFunction,Plated,PTH,ComponentDrill
T7C0.950
; #@! TA.AperFunction,Plated,PTH,ViaDrill
T8C1.000
; #@! TA.AperFunction,Plated,PTH,ComponentDrill
T9C1.000
; #@! TA.AperFunction,Plated,PTH,ComponentDrill
T10C1.100
%
G90
G05
T1
X104.3Y-108.5
X110.142Y-109.061
X111.0Y-85.0
X111.0Y-110.0
X115.4Y-119.9
X116.0Y-110.4
X121.7Y-65.0
X123.8Y-72.2
X123.822Y-83.378
X124.0Y-112.0
X125.0Y-131.0
X129.3Y-132.591
X134.0Y-84.0
X134.0Y-132.0
X135.0Y-63.0
X135.3Y-59.6
X137.0Y-144.0
X137.1Y-57.1
X137.4Y-83.2
X137.5Y-79.9
X139.4Y-69.0
X139.6Y-60.1
X144.3Y-68.3
X144.9Y-61.3
X153.1Y-57.0
X154.9Y-144.9
X155.4Y-137.5
X156.0Y-126.0
X156.0Y-130.0
X156.9Y-56.0
X159.0Y-134.7
X160.4Y-122.0
X160.6Y-135.9
X166.9Y-60.9
X166.9Y-66.5
X167.038Y-91.024
X167.8Y-91.624
X168.2Y-65.6
X168.3Y-59.9
X168.9Y-67.1
X170.0Y-136.0
X170.1Y-137.888
X171.0Y-124.0
X171.0Y-140.2
X173.781Y-67.878
X173.8Y-118.4
X175.0Y-83.0
X175.0Y-84.0
X177.4Y-65.89
X178.0Y-67.6
X179.1Y-114.1
X180.7Y-119.729
X182.2Y-72.2
X182.2Y-127.3
X183.3Y-94.7
X185.7Y-81.8
X190.3Y-121.598
X191.3Y-87.299
X192.2Y-96.2
X192.8Y-113.2
X192.9Y-104.3
X194.2Y-95.4
X195.0Y-89.5
T2
X183.177Y-131.269
T3
X106.2Y-111.8
X106.7Y-98.6
X107.4Y-84.0
X107.7Y-87.8
X107.7Y-102.4
X109.7Y-87.085
X110.266Y-82.002
X111.8Y-95.6
X114.0Y-116.4
X115.5Y-80.9
X116.7Y-130.3
X117.6Y-69.5
X117.9Y-64.3
X118.8Y-77.0
X121.0Y-69.1
X121.0Y-130.8
X122.7Y-65.7
X122.7Y-84.4
X127.1Y-87.9
X127.2Y-81.465
X131.0Y-58.3
X133.036Y-139.2
X135.8Y-107.3
X136.7Y-137.1
X136.9Y-128.4
X137.3Y-141.7
X140.7Y-58.5
X143.2Y-63.7
X143.8Y-65.1
X144.846Y-60.146
X145.1Y-144.0
X145.2Y-125.7
X145.26Y-58.46
X146.5Y-64.9
X146.7Y-68.0
X148.4Y-60.125
X148.6Y-57.7
X149.2Y-64.6
X151.3Y-144.9
X151.8Y-133.3
X159.0Y-140.3
X159.759Y-135.351
X163.6Y-59.9
X164.6Y-62.4
X166.1Y-57.8
X167.4Y-68.7
X170.6Y-63.5
X171.9Y-124.8
X172.0Y-59.6
X172.0Y-118.3
X174.3Y-138.9
X174.461Y-85.6
X181.314Y-129.086
X182.775Y-69.325
X183.0Y-78.3
X187.3Y-94.0
X188.4Y-92.093
X188.4Y-97.948
X188.8Y-86.3
X188.8Y-89.0
X190.2Y-98.1
X193.65Y-116.798
X194.3Y-105.7
X195.2Y-95.6
X195.8Y-90.2
T4
X129.6Y-119.6
X175.0Y-120.0
X176.466Y-122.466
T5
X150.961Y-79.852
X150.961Y-82.352
X153.0Y-65.26
X153.0Y-70.34
X155.54Y-67.8
X161.609Y-80.758
X163.38Y-110.5
X163.38Y-114.6
X169.229Y-80.758
X171.0Y-110.5
X171.0Y-114.6
X176.75Y-102.2
X176.75Y-109.82
X180.593Y-109.85
X180.593Y-102.23
T6
X135.6Y-81.0
X136.35Y-88.1
X172.2Y-89.3
X173.0Y-121.55
X173.0Y-132.0
X180.8Y-95.4
T7
X170.361Y-96.407
X172.861Y-96.407
X175.361Y-96.407
X177.861Y-96.407
T8
X145.7Y-119.8
T9
X142.37Y-81.109
X142.37Y-83.649
X142.37Y-86.189
X142.37Y-88.729
X142.37Y-91.269
X142.37Y-93.809
X142.37Y-96.349
X142.37Y-98.889
X142.37Y-101.429
X142.37Y-103.969
X142.37Y-106.509
X142.37Y-109.049
X142.37Y-111.589
X142.37Y-114.129
X142.37Y-116.669
X146.081Y-83.082
X146.081Y-88.082
X157.61Y-81.109
X157.61Y-83.649
X157.61Y-86.189
X157.61Y-88.729
X157.61Y-91.269
X157.61Y-93.809
X157.61Y-96.349
X157.61Y-98.889
X157.61Y-101.429
X157.61Y-103.969
X157.61Y-106.509
X157.61Y-109.049
X157.61Y-111.589
X157.61Y-114.129
X157.61Y-116.669
X163.534Y-95.315
X163.534Y-97.855
X163.534Y-100.395
X168.9Y-105.4
X171.4Y-105.4
T10
X164.5Y-119.2
X166.79Y-119.2
X169.08Y-119.2
M30
