%TF.GenerationSoftware,KiCad,Pcbnew,9.0.6-9.0.6~ubuntu22.04.1*%
%TF.CreationDate,2025-11-25T23:45:25+09:00*%
%TF.ProjectId,LineSensor,4c696e65-5365-46e7-936f-722e6b696361,rev?*%
%TF.SameCoordinates,Original*%
%TF.FileFunction,Other,User*%
%FSLAX46Y46*%
G04 Gerber Fmt 4.6, Leading zero omitted, Abs format (unit mm)*
G04 Created by KiCad (PCBNEW 9.0.6-9.0.6~ubuntu22.04.1) date 2025-11-25 23:45:25*
%MOMM*%
%LPD*%
G01*
G04 APERTURE LIST*
%ADD10C,0.050000*%
G04 APERTURE END LIST*
D10*
%TO.C,J2*%
X165950000Y-108250000D02*
X165950000Y-101500000D01*
X165950000Y-101500000D02*
X174350000Y-101500000D01*
X174350000Y-108250000D02*
X165950000Y-108250000D01*
X174350000Y-101500000D02*
X174350000Y-108250000D01*
%TO.C,SW2*%
X161784000Y-93515000D02*
X161784000Y-102165000D01*
X161784000Y-102165000D02*
X165334000Y-102165000D01*
X165334000Y-93515000D02*
X161784000Y-93515000D01*
X165334000Y-102165000D02*
X165334000Y-93515000D01*
%TO.C,R84*%
X162330000Y-112000000D02*
X172050000Y-112000000D01*
X172050000Y-109000000D01*
X162330000Y-109000000D01*
X162330000Y-112000000D01*
%TO.C,C2*%
X153711000Y-81102000D02*
G75*
G02*
X148211000Y-81102000I-2750000J0D01*
G01*
X148211000Y-81102000D02*
G75*
G02*
X153711000Y-81102000I2750000J0D01*
G01*
%TO.C,J1*%
X167411000Y-93557000D02*
X180811000Y-93557000D01*
X167411000Y-100307000D02*
X167411000Y-93557000D01*
X180811000Y-93557000D02*
X180811000Y-100307000D01*
X180811000Y-100307000D02*
X167411000Y-100307000D01*
%TO.C,A1*%
X140860000Y-123269000D02*
X140860000Y-77049000D01*
X140860000Y-123269000D02*
X159140000Y-123269000D01*
X159140000Y-77049000D02*
X140860000Y-77049000D01*
X159140000Y-77049000D02*
X159140000Y-123269000D01*
%TO.C,R51*%
X182093000Y-101180001D02*
X182093000Y-110900000D01*
X179093000Y-110900000D01*
X179093000Y-101180000D01*
X182093000Y-101180001D01*
%TO.C,C3*%
X147581000Y-89582000D02*
X144581000Y-89582000D01*
X144581000Y-81582000D01*
X147581000Y-81582000D01*
X147581000Y-89582000D01*
%TO.C,R50*%
X178250000Y-110870000D02*
X175250000Y-110870000D01*
X175250000Y-101150000D01*
X178250000Y-101150000D01*
X178250000Y-110870000D01*
%TO.C,R49*%
X170279000Y-79258000D02*
X160559000Y-79258000D01*
X160559000Y-82258000D01*
X170279000Y-82258000D01*
X170279000Y-79258000D01*
%TO.C,R85*%
X172050000Y-113100000D02*
X162330000Y-113100000D01*
X162330000Y-116100000D01*
X172050000Y-116100000D01*
X172050000Y-113100000D01*
%TO.C,Q17*%
X163250000Y-121450000D02*
X163250000Y-128050000D01*
X163250000Y-128050000D02*
X163690000Y-128050000D01*
X163390000Y-118050000D02*
X163390000Y-120350000D01*
X163390000Y-120350000D02*
X163870000Y-120350000D01*
X163690000Y-128050000D02*
X163690000Y-129990000D01*
X163690000Y-129990000D02*
X169890000Y-129990000D01*
X163870000Y-120350000D02*
X163870000Y-121450000D01*
X163870000Y-121450000D02*
X163250000Y-121450000D01*
X165130000Y-120350000D02*
X165610000Y-120350000D01*
X165130000Y-121450000D02*
X165130000Y-120350000D01*
X165610000Y-118050000D02*
X163390000Y-118050000D01*
X165610000Y-120350000D02*
X165610000Y-118050000D01*
X165680000Y-118050000D02*
X165680000Y-120350000D01*
X165680000Y-120350000D02*
X166160000Y-120350000D01*
X166160000Y-120350000D02*
X166160000Y-121450000D01*
X166160000Y-121450000D02*
X165130000Y-121450000D01*
X167420000Y-120350000D02*
X167900000Y-120350000D01*
X167420000Y-121450000D02*
X167420000Y-120350000D01*
X167900000Y-118050000D02*
X165680000Y-118050000D01*
X167900000Y-120350000D02*
X167900000Y-118050000D01*
X167970000Y-118050000D02*
X167970000Y-120350000D01*
X167970000Y-120350000D02*
X168450000Y-120350000D01*
X168450000Y-120350000D02*
X168450000Y-121450000D01*
X168450000Y-121450000D02*
X167420000Y-121450000D01*
X169710000Y-120350000D02*
X170190000Y-120350000D01*
X169710000Y-121450000D02*
X169710000Y-120350000D01*
X169890000Y-128050000D02*
X170330000Y-128050000D01*
X169890000Y-129990000D02*
X169890000Y-128050000D01*
X170190000Y-118050000D02*
X167970000Y-118050000D01*
X170190000Y-120350000D02*
X170190000Y-118050000D01*
X170330000Y-121450000D02*
X169710000Y-121450000D01*
X170330000Y-128050000D02*
X170330000Y-121450000D01*
%TD*%
M02*
